<svg xmlns="http://www.w3.org/2000/svg" xmlns:xlink="http://www.w3.org/1999/xlink" width="200" zoomAndPan="magnify" viewBox="0 0 150 37.5" height="50" preserveAspectRatio="xMidYMid meet" version="1.0"><defs><g/><clipPath id="aee210d7c1"><path d="M 0.988281 0 L 149 0 L 149 37.007812 L 0.988281 37.007812 Z M 0.988281 0 " clip-rule="nonzero"/></clipPath><clipPath id="5dd3e421ed"><path d="M 0.988281 0 L 121 0 L 121 37.007812 L 0.988281 37.007812 Z M 0.988281 0 " clip-rule="nonzero"/></clipPath><clipPath id="16bcbf44a1"><rect x="0" width="121" y="0" height="38"/></clipPath><clipPath id="179e519a0c"><path d="M 0.511719 20 L 7 20 L 7 33 L 0.511719 33 Z M 0.511719 20 " clip-rule="nonzero"/></clipPath><clipPath id="08c5599892"><path d="M 16 20 L 22.300781 20 L 22.300781 33 L 16 33 Z M 16 20 " clip-rule="nonzero"/></clipPath><clipPath id="ab9856691e"><rect x="0" width="23" y="0" height="37"/></clipPath><clipPath id="77709fa0d4"><path d="M 96 0 L 148.066406 0 L 148.066406 37.007812 L 96 37.007812 Z M 96 0 " clip-rule="nonzero"/></clipPath><clipPath id="1a974936df"><rect x="0" width="53" y="0" height="38"/></clipPath><clipPath id="75b831513d"><rect x="0" width="149" y="0" height="38"/></clipPath></defs><g clip-path="url(#aee210d7c1)"><g transform="matrix(1, 0, 0, 1, 0.000000000000000222, -0.000000000000001478)"><g clip-path="url(#75b831513d)"><g clip-path="url(#5dd3e421ed)"><g transform="matrix(1, 0, 0, 1, 0.000000000000000222, -0.000000000000001478)"><g clip-path="url(#16bcbf44a1)"><g fill="#ffffff" fill-opacity="1"><g transform="translate(-0.0482502, 32.071372)"><g><path d="M 1.96875 -26.515625 L 9.265625 -26.515625 C 12.171875 -26.515625 14.363281 -26 15.84375 -24.96875 C 17.320312 -23.945312 18.0625 -22.128906 18.0625 -19.515625 C 18.0625 -17.742188 17.832031 -16.332031 17.375 -15.28125 C 16.914062 -14.238281 16.066406 -13.421875 14.828125 -12.828125 L 18.46875 0 L 12.40625 0 L 9.5 -11.875 L 7.828125 -11.875 L 7.828125 0 L 1.96875 0 Z M 9.453125 -15.25 C 10.640625 -15.25 11.46875 -15.5625 11.9375 -16.1875 C 12.40625 -16.8125 12.640625 -17.742188 12.640625 -18.984375 C 12.640625 -20.179688 12.421875 -21.082031 11.984375 -21.6875 C 11.546875 -22.289062 10.789062 -22.59375 9.71875 -22.59375 L 7.828125 -22.59375 L 7.828125 -15.25 Z M 9.453125 -15.25 "/></g></g></g><g fill="#ffffff" fill-opacity="1"><g transform="translate(19.593248, 32.071372)"><g><path d="M 5.703125 -26.515625 L 12.375 -26.515625 L 17.3125 0 L 11.921875 0 L 11.03125 -5.59375 L 7.140625 -5.59375 L 6.21875 0 L 0.6875 0 Z M 10.46875 -9.09375 L 9.0625 -19.4375 L 7.65625 -9.09375 Z M 10.46875 -9.09375 "/></g></g></g><g fill="#ffffff" fill-opacity="1"><g transform="translate(37.205102, 32.071372)"><g><path d="M 9.5625 0.390625 C 6.675781 0.390625 4.628906 -0.363281 3.421875 -1.875 C 2.210938 -3.394531 1.609375 -5.585938 1.609375 -8.453125 L 1.609375 -18 C 1.609375 -20.925781 2.207031 -23.132812 3.40625 -24.625 C 4.601562 -26.125 6.65625 -26.875 9.5625 -26.875 C 12.332031 -26.875 14.296875 -26.207031 15.453125 -24.875 C 16.609375 -23.539062 17.1875 -21.65625 17.1875 -19.21875 L 17.1875 -16.921875 L 11.453125 -16.921875 L 11.453125 -19.578125 C 11.453125 -20.597656 11.34375 -21.378906 11.125 -21.921875 C 10.90625 -22.472656 10.382812 -22.75 9.5625 -22.75 C 8.726562 -22.75 8.179688 -22.457031 7.921875 -21.875 C 7.660156 -21.300781 7.53125 -20.503906 7.53125 -19.484375 L 7.53125 -7 C 7.53125 -5.957031 7.664062 -5.15625 7.9375 -4.59375 C 8.207031 -4.039062 8.75 -3.765625 9.5625 -3.765625 C 10.363281 -3.765625 10.878906 -4.039062 11.109375 -4.59375 C 11.335938 -5.15625 11.453125 -5.957031 11.453125 -7 L 11.453125 -9.78125 L 17.1875 -9.78125 L 17.1875 -7.5 C 17.1875 -5.007812 16.609375 -3.070312 15.453125 -1.6875 C 14.296875 -0.300781 12.332031 0.390625 9.5625 0.390625 Z M 9.5625 0.390625 "/></g></g></g><g fill="#ffffff" fill-opacity="1"><g transform="translate(55.635372, 32.071372)"><g><path d="M 1.96875 -26.515625 L 13.875 -26.515625 L 13.875 -22.515625 L 7.828125 -22.515625 L 7.828125 -15.9375 L 12.4375 -15.9375 L 12.4375 -11.875 L 7.828125 -11.875 L 7.828125 -3.953125 L 13.9375 -3.953125 L 13.9375 0 L 1.96875 0 Z M 1.96875 -26.515625 "/></g></g></g><g fill="#ffffff" fill-opacity="1"><g transform="translate(70.269526, 32.071372)"><g/></g></g><g fill="#ffffff" fill-opacity="1"><g transform="translate(78.649899, 32.071372)"><g/></g></g><g fill="#ffffff" fill-opacity="1"><g transform="translate(87.030272, 32.071372)"><g/></g></g><g fill="#ffffff" fill-opacity="1"><g transform="translate(95.410644, 32.071372)"><g/></g></g><g fill="#ffffff" fill-opacity="1"><g transform="translate(103.791017, 32.071372)"><g/></g></g><g fill="#ffffff" fill-opacity="1"><g transform="translate(112.17139, 32.071372)"><g/></g></g></g></g></g><g transform="matrix(1, 0, 0, 1, 72, -0.000000000000001478)"><g clip-path="url(#ab9856691e)"><g fill="#ffffff" fill-opacity="1"><g transform="translate(0.5717, 17.1367)"><g><path d="M 4.3125 0.171875 C 3.019531 0.171875 2.097656 -0.15625 1.546875 -0.8125 C 0.992188 -1.476562 0.71875 -2.460938 0.71875 -3.765625 L 0.71875 -8.203125 C 0.71875 -9.503906 0.992188 -10.484375 1.546875 -11.140625 C 2.097656 -11.796875 3.019531 -12.125 4.3125 -12.125 C 5.613281 -12.125 6.539062 -11.789062 7.09375 -11.125 C 7.644531 -10.46875 7.921875 -9.492188 7.921875 -8.203125 L 7.921875 -3.765625 C 7.921875 -2.460938 7.644531 -1.476562 7.09375 -0.8125 C 6.539062 -0.15625 5.613281 0.171875 4.3125 0.171875 Z M 4.3125 -1.703125 C 4.6875 -1.703125 4.929688 -1.828125 5.046875 -2.078125 C 5.171875 -2.328125 5.234375 -2.664062 5.234375 -3.09375 L 5.234375 -8.859375 C 5.234375 -9.304688 5.171875 -9.648438 5.046875 -9.890625 C 4.929688 -10.140625 4.6875 -10.265625 4.3125 -10.265625 C 3.957031 -10.265625 3.71875 -10.140625 3.59375 -9.890625 C 3.476562 -9.640625 3.421875 -9.296875 3.421875 -8.859375 L 3.421875 -3.09375 C 3.421875 -2.664062 3.472656 -2.328125 3.578125 -2.078125 C 3.691406 -1.828125 3.9375 -1.703125 4.3125 -1.703125 Z M 4.3125 -1.703125 "/></g></g></g><g fill="#ffffff" fill-opacity="1"><g transform="translate(9.030878, 17.1367)"><g><path d="M 0.890625 -11.953125 L 6.046875 -11.953125 L 6.046875 -10.171875 L 3.53125 -10.171875 L 3.53125 -7.15625 L 5.734375 -7.15625 L 5.734375 -5.3125 L 3.53125 -5.3125 L 3.53125 0 L 0.890625 0 Z M 0.890625 -11.953125 "/></g></g></g><g fill="#ffffff" fill-opacity="1"><g transform="translate(15.246391, 17.1367)"><g/></g></g><g clip-path="url(#179e519a0c)"><g fill="#ffffff" fill-opacity="1"><g transform="translate(0.5717, 32.422648)"><g><path d="M 1.96875 -10 L 0.15625 -10 L 0.15625 -11.953125 L 6.40625 -11.953125 L 6.40625 -10 L 4.625 -10 L 4.625 0 L 1.96875 0 Z M 1.96875 -10 "/></g></g></g></g><g fill="#ffffff" fill-opacity="1"><g transform="translate(6.949297, 32.422648)"><g><path d="M 0.9375 -11.953125 L 3.578125 -11.953125 L 3.578125 -7.109375 L 5.421875 -7.109375 L 5.421875 -11.953125 L 8.078125 -11.953125 L 8.078125 0 L 5.421875 0 L 5.421875 -5.234375 L 3.578125 -5.234375 L 3.578125 0 L 0.9375 0 Z M 0.9375 -11.953125 "/></g></g></g><g clip-path="url(#08c5599892)"><g fill="#ffffff" fill-opacity="1"><g transform="translate(15.762787, 32.422648)"><g><path d="M 0.890625 -11.953125 L 6.265625 -11.953125 L 6.265625 -10.15625 L 3.53125 -10.15625 L 3.53125 -7.1875 L 5.609375 -7.1875 L 5.609375 -5.359375 L 3.53125 -5.359375 L 3.53125 -1.78125 L 6.296875 -1.78125 L 6.296875 0 L 0.890625 0 Z M 0.890625 -11.953125 "/></g></g></g></g></g></g><g clip-path="url(#77709fa0d4)"><g transform="matrix(1, 0, 0, 1, 96, -0.000000000000001478)"><g clip-path="url(#1a974936df)"><g fill="#ffffff" fill-opacity="1"><g transform="translate(0.257081, 32.071372)"><g><path d="M 1.96875 -26.515625 L 8.671875 -26.515625 C 10.960938 -26.515625 12.75 -26.226562 14.03125 -25.65625 C 15.320312 -25.09375 16.234375 -24.203125 16.765625 -22.984375 C 17.304688 -21.773438 17.578125 -20.160156 17.578125 -18.140625 L 17.578125 -8.515625 C 17.578125 -6.460938 17.304688 -4.820312 16.765625 -3.59375 C 16.234375 -2.375 15.328125 -1.46875 14.046875 -0.875 C 12.773438 -0.289062 11.003906 0 8.734375 0 L 1.96875 0 Z M 8.734375 -4.0625 C 9.585938 -4.0625 10.21875 -4.1875 10.625 -4.4375 C 11.03125 -4.6875 11.285156 -5.046875 11.390625 -5.515625 C 11.503906 -5.984375 11.5625 -6.675781 11.5625 -7.59375 L 11.5625 -19.15625 C 11.5625 -20 11.5 -20.644531 11.375 -21.09375 C 11.25 -21.539062 10.984375 -21.875 10.578125 -22.09375 C 10.179688 -22.3125 9.554688 -22.421875 8.703125 -22.421875 L 7.828125 -22.421875 L 7.828125 -4.0625 Z M 8.734375 -4.0625 "/></g></g></g><g fill="#ffffff" fill-opacity="1"><g transform="translate(19.047427, 32.071372)"><g><path d="M 5.703125 -26.515625 L 12.375 -26.515625 L 17.3125 0 L 11.921875 0 L 11.03125 -5.59375 L 7.140625 -5.59375 L 6.21875 0 L 0.6875 0 Z M 10.46875 -9.09375 L 9.0625 -19.4375 L 7.65625 -9.09375 Z M 10.46875 -9.09375 "/></g></g></g><g fill="#ffffff" fill-opacity="1"><g transform="translate(35.775367, 32.071372)"><g><path d="M 5.296875 -10.828125 L 0.265625 -26.515625 L 5.796875 -26.515625 L 8.3125 -18.140625 L 10.578125 -26.515625 L 15.875 -26.515625 L 10.9375 -10.828125 L 10.9375 0 L 5.296875 0 Z M 5.296875 -10.828125 "/></g></g></g></g></g></g></g></g></g></svg>
